<svg id="svg" version="1.1" xmlns="http://www.w3.org/2000/svg" xmlns:xlink="http://www.w3.org/1999/xlink" width="400" height="400" viewBox="0, 0, 400,400"><g id="svgg"><path id="path0" d="M86.339 85.923 C 85.356 86.544,85.175 175.262,86.156 175.451 C 86.541 175.525,101.413 175.540,119.204 175.484 L 151.551 175.382 151.654 163.570 L 151.758 151.758 175.000 151.646 C 197.599 151.537,206.376 151.816,210.396 152.772 C 215.239 153.924,225.183 158.273,225.716 159.473 C 225.788 159.634,226.021 159.766,226.235 159.766 C 229.881 159.766,244.873 178.902,244.916 183.613 C 244.919 183.946,245.074 184.386,245.261 184.590 C 246.163 185.578,247.657 195.001,247.654 199.684 C 247.641 217.892,236.955 235.006,220.703 242.844 C 211.022 247.514,209.877 247.642,177.832 247.650 L 151.563 247.656 151.563 235.742 L 151.563 223.828 119.922 223.828 C 102.520 223.828,88.281 223.974,88.281 224.152 C 88.281 227.477,94.033 243.480,98.063 251.367 C 101.660 258.408,107.888 268.077,111.133 271.658 C 111.348 271.895,112.666 273.402,114.063 275.005 C 121.970 284.087,132.892 293.009,143.359 298.938 C 145.977 300.420,154.653 304.688,155.049 304.688 C 155.268 304.687,156.288 305.065,157.314 305.526 C 179.654 315.564,210.298 316.347,236.719 307.555 C 238.575 306.938,238.790 306.856,242.188 305.485 C 245.002 304.349,258.119 297.792,259.375 296.893 C 259.912 296.509,261.758 295.261,263.477 294.119 C 266.265 292.268,271.361 288.505,271.875 287.918 C 271.982 287.796,273.389 286.556,275.000 285.163 C 281.928 279.176,288.876 271.217,294.272 263.086 C 295.698 260.938,297.052 258.958,297.280 258.687 C 298.107 257.706,303.769 246.210,305.022 242.969 C 305.727 241.143,306.451 239.297,306.630 238.867 C 308.384 234.649,310.887 225.212,311.862 219.141 C 313.254 210.465,313.476 207.715,313.452 199.414 C 313.393 179.344,308.543 161.060,298.645 143.592 C 295.821 138.608,290.173 130.374,287.677 127.603 C 287.451 127.353,286.117 125.830,284.712 124.219 C 281.107 120.085,275.824 115.021,271.484 111.541 C 267.185 108.093,266.748 107.753,265.941 107.227 C 265.611 107.012,263.745 105.739,261.794 104.399 C 247.282 94.431,228.806 88.211,207.617 86.161 C 200.335 85.457,87.427 85.235,86.339 85.923 M86.914 194.083 L 85.742 194.344 85.742 199.809 L 85.742 205.273 118.555 205.273 L 151.367 205.273 151.476 199.835 C 151.553 196.028,151.450 194.312,151.133 194.116 C 150.560 193.763,88.498 193.730,86.914 194.083 " stroke="none" fill="#fbfbfb" fill-rule="evenodd"></path><path id="path1" d="M0.000 200.000 L 0.000 400.000 200.000 400.000 L 400.000 400.000 400.000 200.000 L 400.000 0.000 200.000 0.000 L 0.000 0.000 0.000 200.000 M209.766 85.956 C 220.683 87.351,224.807 88.098,230.440 89.700 C 233.329 90.522,239.648 92.710,241.602 93.565 C 242.461 93.941,243.516 94.384,243.945 94.549 C 244.375 94.715,246.484 95.671,248.633 96.674 C 255.017 99.656,259.173 102.125,266.868 107.509 C 274.606 112.925,286.301 124.461,290.882 131.198 C 291.705 132.408,292.606 133.637,292.883 133.928 C 293.583 134.665,297.254 140.375,298.694 142.969 C 301.813 148.584,302.780 150.498,304.472 154.403 C 315.930 180.853,316.958 214.573,307.047 238.867 C 302.433 250.175,299.485 255.991,294.961 262.703 C 292.394 266.513,290.056 269.749,289.463 270.313 C 289.350 270.420,288.558 271.387,287.702 272.461 C 284.321 276.704,279.275 281.915,275.000 285.577 C 273.389 286.957,271.982 288.178,271.875 288.290 C 268.048 292.282,250.922 302.452,242.383 305.802 C 241.094 306.308,239.688 306.862,239.258 307.033 C 234.815 308.798,225.476 311.319,219.922 312.251 C 217.881 312.594,215.068 313.074,213.672 313.318 C 209.090 314.117,193.743 314.233,187.848 313.512 C 179.735 312.520,176.595 311.911,168.555 309.775 C 166.328 309.183,160.738 307.368,159.570 306.857 C 158.926 306.576,157.168 305.864,155.664 305.277 C 141.136 299.604,124.416 287.555,113.646 275.000 C 112.264 273.389,111.037 271.982,110.919 271.875 C 104.983 266.445,92.441 242.482,89.876 231.668 C 89.694 230.901,89.165 228.884,88.700 227.186 C 88.234 225.485,88.004 223.949,88.187 223.766 C 88.370 223.583,102.749 223.478,120.139 223.533 L 151.758 223.633 151.861 235.449 L 151.965 247.266 178.400 247.266 C 204.960 247.266,206.544 247.197,211.719 245.815 C 234.966 239.610,250.738 215.977,246.873 193.138 C 246.193 189.120,245.222 184.975,244.870 184.590 C 244.684 184.386,244.531 183.931,244.531 183.580 C 244.531 179.040,229.781 160.156,226.235 160.156 C 226.021 160.156,225.788 160.006,225.716 159.822 C 225.505 159.280,219.951 156.387,216.992 155.278 C 208.710 152.174,205.161 151.901,175.000 152.042 L 152.148 152.148 151.953 163.867 L 151.758 175.586 119.307 175.781 C 101.459 175.889,86.561 175.920,86.201 175.850 C 85.594 175.733,85.547 172.498,85.547 130.635 L 85.547 85.547 146.191 85.564 C 182.461 85.574,208.013 85.732,209.766 85.956 M151.758 199.805 L 151.758 205.664 118.652 205.764 L 85.547 205.864 85.547 199.805 L 85.547 193.746 118.652 193.845 L 151.758 193.945 151.758 199.805 " stroke="none" fill="#1c7ce4" fill-rule="evenodd"></path><path id="path2" d="M164.384 151.855 C 171.113 151.915,182.011 151.915,188.602 151.855 C 195.193 151.795,189.688 151.746,176.367 151.746 C 163.047 151.746,157.654 151.795,164.384 151.855 M204.004 152.222 C 204.380 152.321,204.995 152.321,205.371 152.222 C 205.747 152.124,205.439 152.044,204.688 152.044 C 203.936 152.044,203.628 152.124,204.004 152.222 M151.713 161.328 C 151.713 164.014,151.775 165.112,151.852 163.770 C 151.928 162.427,151.928 160.229,151.852 158.887 C 151.775 157.544,151.713 158.643,151.713 161.328 M247.402 199.609 C 247.402 201.436,247.469 202.183,247.552 201.270 C 247.634 200.356,247.634 198.862,247.552 197.949 C 247.469 197.036,247.402 197.783,247.402 199.609 M151.696 202.148 C 151.698 203.867,151.767 204.522,151.849 203.603 C 151.932 202.684,151.930 201.278,151.846 200.478 C 151.763 199.678,151.695 200.430,151.696 202.148 M105.595 223.730 C 113.937 223.789,127.472 223.789,135.674 223.730 C 143.875 223.671,137.051 223.623,120.508 223.623 C 103.965 223.623,97.254 223.672,105.595 223.730 M151.707 228.125 C 151.707 230.381,151.772 231.304,151.850 230.176 C 151.929 229.048,151.929 227.202,151.850 226.074 C 151.772 224.946,151.707 225.869,151.707 228.125 " stroke="none" fill="#72afec" fill-rule="evenodd"></path><path id="path3" d="M201.469 152.229 C 201.955 152.323,202.658 152.319,203.032 152.222 C 203.405 152.124,203.008 152.047,202.148 152.052 C 201.289 152.056,200.983 152.136,201.469 152.229 M151.661 155.273 C 151.665 156.133,151.745 156.438,151.839 155.952 C 151.932 155.467,151.929 154.763,151.831 154.390 C 151.733 154.017,151.657 154.414,151.661 155.273 M151.707 169.922 C 151.707 172.178,151.772 173.101,151.850 171.973 C 151.929 170.845,151.929 168.999,151.850 167.871 C 151.772 166.743,151.707 167.666,151.707 169.922 M313.833 199.609 C 313.833 203.369,313.891 204.907,313.963 203.027 C 314.034 201.147,314.034 198.071,313.963 196.191 C 313.891 194.312,313.833 195.850,313.833 199.609 M151.724 238.867 C 151.724 242.734,151.783 244.264,151.854 242.265 C 151.925 240.267,151.925 237.103,151.853 235.234 C 151.782 233.365,151.723 235.000,151.724 238.867 M164.551 247.558 C 171.372 247.618,182.534 247.618,189.355 247.558 C 196.177 247.499,190.596 247.450,176.953 247.450 C 163.311 247.450,157.729 247.499,164.551 247.558 M119.141 280.982 C 119.141 281.049,119.712 281.620,120.410 282.251 L 121.680 283.398 120.532 282.129 C 119.463 280.946,119.141 280.680,119.141 280.982 M195.432 313.964 C 197.969 314.032,202.012 314.032,204.417 313.963 C 206.821 313.895,204.746 313.839,199.805 313.839 C 194.863 313.840,192.896 313.896,195.432 313.964 " stroke="none" fill="#4695e4" fill-rule="evenodd"></path><path id="path4" d="M203.813 85.823 C 204.299 85.917,205.002 85.913,205.376 85.815 C 205.749 85.717,205.352 85.641,204.492 85.645 C 203.633 85.650,203.327 85.730,203.813 85.823 M208.301 86.207 C 208.677 86.305,209.292 86.305,209.668 86.207 C 210.044 86.109,209.736 86.028,208.984 86.028 C 208.232 86.028,207.925 86.109,208.301 86.207 M85.708 94.141 C 85.708 97.900,85.766 99.438,85.838 97.559 C 85.909 95.679,85.909 92.603,85.838 90.723 C 85.766 88.843,85.708 90.381,85.708 94.141 M103.027 175.683 C 111.890 175.742,126.392 175.742,135.254 175.683 C 144.116 175.625,136.865 175.577,119.141 175.577 C 101.416 175.577,94.165 175.625,103.027 175.683 M85.786 194.070 C 85.677 194.246,86.106 194.314,86.739 194.221 C 87.373 194.128,87.891 193.984,87.891 193.901 C 87.891 193.603,85.979 193.757,85.786 194.070 M147.759 194.030 C 148.353 194.120,149.232 194.118,149.712 194.025 C 150.193 193.932,149.707 193.859,148.633 193.862 C 147.559 193.865,147.166 193.941,147.759 194.030 M85.803 205.566 C 86.039 205.949,151.070 205.949,151.307 205.566 C 151.406 205.405,136.668 205.273,118.555 205.273 C 100.441 205.273,85.703 205.405,85.803 205.566 M313.372 208.203 C 313.372 208.955,313.452 209.263,313.551 208.887 C 313.649 208.511,313.649 207.896,313.551 207.520 C 313.452 207.144,313.372 207.451,313.372 208.203 M122.266 283.789 C 122.994 284.541,123.679 285.156,123.786 285.156 C 123.893 285.156,123.385 284.541,122.656 283.789 C 121.927 283.037,121.243 282.422,121.136 282.422 C 121.028 282.422,121.537 283.037,122.266 283.789 " stroke="none" fill="#98c4f4" fill-rule="evenodd"></path></g></svg>